<svg xmlns="http://www.w3.org/2000/svg" viewBox="0 0 221.52 146.96"><g id="Layer_4" data-name="Layer 4"><rect x="195.98" y="118.08" width="21.07" height="20.32" rx="3.73" fill="#fff"/><path d="M193,119.53H30.69c-2.38,0-4.33-2.28-4.33-5.07V77c0-2.78,1.95-5.06,4.33-5.06H193c2.38,0,4.33,2.28,4.33,5.06v37.51a5.64,5.64,0,0,0,1,3.46,4.1,4.1,0,0,0,2.39,1.61,4.11,4.11,0,0,1-1.34,2.08,2.49,2.49,0,0,1-2,.6,4.48,4.48,0,0,0-1.49-2,3.46,3.46,0,0,0-2.25-.69Z" fill="#fff"/><text transform="translate(43.41 102.79)" font-size="20" fill="#2d2840" font-family="IBMPlexSans-SemiBold, IBM Plex Sans" font-weight="600">AI Ch<tspan x="51.22" y="0" letter-spacing="0em">a</tspan><tspan x="62.32" y="0">tb</tspan><tspan x="81.8" y="0" letter-spacing="0em">o</tspan><tspan x="92.98" y="0" letter-spacing="0em">ts</tspan></text><rect x="4.47" y="43.19" width="14.29" height="13.78" rx="2.53" transform="translate(23.23 100.15) rotate(-180)" fill="#ff004f"/><path d="M19.66,44.31H80.72c.9,0,1.63-1.55,1.63-3.44V15.44c0-1.89-.73-3.44-1.63-3.44H19.66c-.9,0-1.63,1.55-1.63,3.44V40.87a6.49,6.49,0,0,1-.39,2.35c-.34.82-.76,1-.9,1.09a3.66,3.66,0,0,0,.51,1.41c.24.34.52.51.76.41a3.65,3.65,0,0,1,.56-1.39,1,1,0,0,1,.84-.47Z" fill="#ff004f"/></g></svg>