<svg xmlns="http://www.w3.org/2000/svg" viewBox="0 0 221.52 146.96"><g id="Layer_2" data-name="Layer 2"><rect x="196.79" y="116.57" width="21.07" height="20.32" rx="3.73" fill="#ff004f"/><path d="M193.85,118H31.51c-2.39,0-4.34-2.28-4.34-5.07V75.44c0-2.78,1.95-5.06,4.34-5.06H193.85c2.39,0,4.34,2.28,4.34,5.06V113a5.64,5.64,0,0,0,1,3.47,4.15,4.15,0,0,0,2.39,1.6,4,4,0,0,1-1.34,2.08,2.47,2.47,0,0,1-2,.6,4.46,4.46,0,0,0-1.49-2,3.44,3.44,0,0,0-2.24-.69Z" fill="#ff004f"/><text transform="translate(44.23 101.28)" font-size="20" fill="#fff" font-family="IBMPlexSans-SemiBold, IBM Plex Sans" font-weight="600">AI Ch<tspan x="51.22" y="0" letter-spacing="0em">a</tspan><tspan x="62.32" y="0">tb</tspan><tspan x="81.8" y="0" letter-spacing="0em">o</tspan><tspan x="92.98" y="0" letter-spacing="0em">ts</tspan></text><rect x="5.29" y="41.68" width="14.29" height="13.78" rx="2.53" transform="translate(24.86 97.14) rotate(-180)" fill="#ff004f"/><path d="M20.47,42.8H81.54c.89,0,1.63-1.54,1.63-3.43V13.93c0-1.89-.74-3.44-1.63-3.44H20.47c-.89,0-1.63,1.55-1.63,3.44V39.37a6.15,6.15,0,0,1-.38,2.34,1.77,1.77,0,0,1-.9,1.09,3.6,3.6,0,0,0,.5,1.41c.24.34.52.51.76.41a3.83,3.83,0,0,1,.56-1.39,1,1,0,0,1,.85-.47Z" fill="#ff004f"/></g></svg>