<svg xmlns="http://www.w3.org/2000/svg" viewBox="0 0 199.03 93.64"><g id="Layer_2" data-name="Layer 2"><rect x="174.31" y="63.26" width="21.07" height="20.32" rx="3.73" fill="#ff004f"/><path d="M171.37,64.71H9c-2.38,0-4.33-2.28-4.33-5.07V22.13c0-2.79,1.95-5.07,4.33-5.07H171.37c2.38,0,4.33,2.28,4.33,5.07V59.64a5.64,5.64,0,0,0,1,3.46,4.1,4.1,0,0,0,2.39,1.61,4.11,4.11,0,0,1-1.34,2.08,2.49,2.49,0,0,1-2,.6,4.48,4.48,0,0,0-1.49-2,3.46,3.46,0,0,0-2.25-.69Z" fill="#ff004f"/><text transform="translate(21.74 47.97)" font-size="20" fill="#fff" font-family="IBMPlexSans-SemiBold, IBM Plex Sans" font-weight="600">AI Ch<tspan x="51.22" y="0" letter-spacing="0em">a</tspan><tspan x="62.32" y="0">tb</tspan><tspan x="81.8" y="0" letter-spacing="0em">o</tspan><tspan x="92.98" y="0" letter-spacing="0em">ts</tspan></text></g></svg>