<svg xmlns="http://www.w3.org/2000/svg" viewBox="0 0 100 100"><g id="crm"><path d="M62.92,83.32c-28.84.4-49.87.44-52.73.14A5.71,5.71,0,0,1,6.71,82a4.91,4.91,0,0,1-1.45-3.49V40.12a5,5,0,0,1,4.93-4.94H67.71a5,5,0,0,1,4.93,4.94V61.44a9.74,9.74,0,0,0-10.79,2.61A10,10,0,0,0,60,72.35a23.32,23.32,0,0,1,2.93,11Z" fill="#ffc782"/><line x1="16.22" y1="35.18" x2="16.22" y2="83.46" fill="none" stroke="#fff" stroke-miterlimit="10"/><line x1="16.22" y1="41.41" x2="72.64" y2="41.41" fill="none" stroke="#fff" stroke-miterlimit="10"/><text transform="translate(25.05 61.64)" font-size="13.73" fill="#fff" font-family="IBMPlexSans-Bold, IBM Plex Sans" font-weight="700">CRM</text><path d="M87.6,64.68H62.92l-1.29.73-1.27-1.25,1.27-.77V57a1.29,1.29,0,0,1,1.29-1.28H87.6A1.29,1.29,0,0,1,88.89,57v6.42l1.4,1.07-1.17,1.19Z" fill="#ff004f"/><path d="M94.88,74.9H90.47s-1.36-.62-1.36-1.37V65.81a1.37,1.37,0,0,1,1.36-1.37h4.41a1.37,1.37,0,0,1,1.37,1.37v7.72A1.37,1.37,0,0,1,94.88,74.9Z" fill="#ff004f"/><circle cx="84.59" cy="69.67" r="2.57" fill="#ff004f"/><circle cx="66.45" cy="69.67" r="2.57" fill="#ff004f"/><rect x="54.49" y="64.16" width="7.14" height="10.45" rx="1.37" fill="#ff004f"/><path d="M87.6,83.32H62.92A1.29,1.29,0,0,1,61.63,82V75.62l-1.13-1,1.13-1.29,1.29,1H87.6l1.51-.8,1.36,1.37-1.58.72V82A1.29,1.29,0,0,1,87.6,83.32Z" fill="#ff004f"/></g></svg>