<svg xmlns="http://www.w3.org/2000/svg" viewBox="0 0 100 100"><g id="database"><path d="M63.91,32.56c0,1.82-12.35,3.15-21.68,3.18C32.56,35.76,20,34.4,20,32.56s11.54-4,22.26-4C52.63,28.63,64,30.81,63.91,32.56Z" fill="#ffc782"/><path d="M64.11,45.13a114.88,114.88,0,0,1-22.85,2.16,114.51,114.51,0,0,1-21.35-2.16V35a98.89,98.89,0,0,0,21.44,2.51A98.74,98.74,0,0,0,64.11,35Z" fill="#ffc782"/><path d="M64.11,57a114.21,114.21,0,0,1-22.85,2.15A113.75,113.75,0,0,1,19.91,57V46.9a98.89,98.89,0,0,0,21.44,2.51A98.74,98.74,0,0,0,64.11,46.9Z" fill="#ffc782"/><path d="M51.41,71.09c-2,.16-5.67.41-10.15.38a116,116,0,0,1-21.35-2.15V59.19A98.89,98.89,0,0,0,41.35,61.7a98.74,98.74,0,0,0,22.76-2.51A17.14,17.14,0,0,0,53.54,66.1,15.54,15.54,0,0,0,51.41,71.09Z" fill="#ffc782"/><path d="M62.45,82c-7.66,1.61-12.37,1.49-21.19,1.78-11.59.39-16.06-1.56-20.07-2-.54-.06-1.28-1.39-1.28-2V71.48A91.89,91.89,0,0,0,41.35,74a91.32,91.32,0,0,0,13.37-1l9.39,7A3.07,3.07,0,0,1,62.45,82Z" fill="#ffc782"/><path d="M81.49,63.43H56.81l-1.29.73-1.27-1.25,1.28-.77V55.72a1.29,1.29,0,0,1,1.28-1.28H81.49a1.29,1.29,0,0,1,1.29,1.28v6.42l1.4,1.07L83,64.4Z" fill="#ff004f"/><path d="M88.78,73.65H84.36S83,73,83,72.28V64.56a1.36,1.36,0,0,1,1.36-1.36h4.42a1.36,1.36,0,0,1,1.36,1.36v7.72A1.37,1.37,0,0,1,88.78,73.65Z" fill="#ff004f"/><circle cx="78.48" cy="68.42" r="2.57" fill="#ff004f"/><circle cx="60.34" cy="68.42" r="2.57" fill="#ff004f"/><rect x="48.38" y="62.91" width="7.14" height="10.45" rx="1.37" fill="#ff004f"/><path d="M81.49,82.07H56.81a1.29,1.29,0,0,1-1.28-1.29V74.37l-1.13-1,1.12-1.28,1.29,1H81.49l1.51-.8,1.36,1.37-1.58.72v6.41A1.29,1.29,0,0,1,81.49,82.07Z" fill="#ff004f"/></g></svg>