<svg xmlns="http://www.w3.org/2000/svg" viewBox="0 0 100 100"><g id="recommandation"><ellipse cx="51.43" cy="38.52" rx="16.08" ry="12.37" fill="#2d2840"/><path d="M35.55,52.46l2.68-6.88,4.92,3.55Z" fill="#2d2840"/><circle cx="84.95" cy="53.95" r="7.77" fill="#ffc782"/><path d="M96.76,74.07c0,2.15-.55,7-.6,8.26l-22,.12c-.1-.92-1-8.06-1-8.38,0-7.84,5.28-14.19,11.8-14.19S96.76,66.23,96.76,74.07Z" fill="#ffc782"/><path d="M32.35,64.53H9.68l-1.19.68L7.32,64.06l1.17-.71v-5.9a1.18,1.18,0,0,1,1.19-1.18H32.35a1.18,1.18,0,0,1,1.18,1.18v5.9l1.29,1-1.08,1.1Z" fill="#ff004f"/><path d="M39,73.92H35s-1.26-.56-1.26-1.25v-7.1A1.26,1.26,0,0,1,35,64.32h4a1.26,1.26,0,0,1,1.26,1.25v7.1A1.26,1.26,0,0,1,39,73.92Z" fill="#ff004f"/><circle cx="29.58" cy="69.12" r="2.36" fill="#ff004f"/><circle cx="12.92" cy="69.12" r="2.36" fill="#ff004f"/><rect x="1.93" y="64.05" width="6.56" height="9.61" rx="1.26" fill="#ff004f"/><path d="M32.35,81.66H9.68a1.18,1.18,0,0,1-1.19-1.18V74.59l-1-1,1-1.18,1.19.94H32.35l1.38-.73L35,73.92l-1.46.67v5.89A1.18,1.18,0,0,1,32.35,81.66Z" fill="#ff004f"/></g></svg>