<svg xmlns="http://www.w3.org/2000/svg" viewBox="0 0 100 100"><g id="recommandation"><rect x="10.8" y="7.65" width="79.01" height="76.67" rx="38.33" fill="#ffc782" opacity="0.15"/><g opacity="0.77"><ellipse cx="56.46" cy="39.18" rx="13.84" ry="10.65" fill="#ffc782"/><path d="M42.8,51.18l2.3-5.92,4.24,3.05Z" fill="#ffc782"/></g><g opacity="0.5"><circle cx="79.78" cy="53.95" r="8.25" fill="#ffc782"/><path d="M92.32,75.31c0,2.3-.59,7.39-.63,8.78l-23.39.13c-.11-1-1.07-8.56-1.07-8.91,0-8.32,5.62-15.06,12.55-15.06S92.32,67,92.32,75.31Z" fill="#ffc782"/></g><path d="M40,64H15.91l-1.26.72L13.41,63.5l1.24-.75V56.48a1.26,1.26,0,0,1,1.26-1.25H40a1.26,1.26,0,0,1,1.26,1.25v6.27l1.37,1L41.48,65Z" fill="#ffc782"/><path d="M47.11,74h-4.3s-1.34-.6-1.34-1.33V65.11a1.34,1.34,0,0,1,1.34-1.33h4.3a1.34,1.34,0,0,1,1.34,1.33v7.54A1.34,1.34,0,0,1,47.11,74Z" fill="#ffc782"/><circle cx="37.06" cy="68.88" r="2.51" fill="#ffc782"/><circle cx="19.35" cy="68.88" r="2.51" fill="#ffc782"/><rect x="7.68" y="63.5" width="6.97" height="10.21" rx="1.33" fill="#ffc782"/><path d="M40,82.2H15.91A1.26,1.26,0,0,1,14.65,81V74.69l-1.1-1,1.1-1.25,1.26,1H40l1.47-.78L42.81,74l-1.55.71V81A1.26,1.26,0,0,1,40,82.2Z" fill="#ffc782"/></g></svg>