<svg xmlns="http://www.w3.org/2000/svg" viewBox="0 0 100 100"><g id="instant_reply" data-name="instant reply"><rect x="10.8" y="7.65" width="79.01" height="76.67" rx="38.33" fill="#ffc782" opacity="0.15"/><path d="M36.63,68.83C28.05,66,22.05,59.35,22.05,51.68,22.05,41.35,32.93,33,46.36,33c11.74,0,21.55,6.41,23.81,14.93-14.68-3.74-27.86.69-32.26,9.39C37,59,35.53,62.87,36.63,68.83Z" fill="#ffc782" opacity="0.39"/><ellipse cx="59.32" cy="64.91" rx="20.73" ry="15.95" fill="#ffc782"/><path d="M79.79,82.89,76.34,74,70,78.58Z" fill="#ffc782"/><path d="M26.36,62.32,22.05,73l12.14-5.14a23.24,23.24,0,0,1-7.83-5.56Z" fill="#ffc782" opacity="0.39"/></g></svg>