<svg xmlns="http://www.w3.org/2000/svg" viewBox="0 0 500 400"><g id="Layer_4" data-name="Layer 4"><rect x="44.63" y="71.2" width="410.74" height="257.6" rx="3.83" fill="#fff"/><path d="M44.63,90V75a3.84,3.84,0,0,1,3.83-3.83H451.54A3.84,3.84,0,0,1,455.37,75V89.54Z" fill="#2d2840" opacity="0.51"/><circle cx="56.03" cy="80.61" r="3.16" fill="#fff"/><circle cx="65.21" cy="80.61" r="3.16" fill="#fff"/><circle cx="73.99" cy="80.61" r="3.16" fill="#fff"/><rect x="89.07" y="119.49" width="157.11" height="9.89" rx="1.48" fill="#2d2840" opacity="0.43"/><rect x="280.52" y="119.49" width="136.73" height="178.78" fill="#2d2840" opacity="0.27"/><rect x="112.96" y="236.41" width="14.08" height="61.02" fill="#2d2840" opacity="0.27"/><rect x="133.9" y="225.35" width="14.08" height="72.09" fill="#2d2840" opacity="0.27"/><rect x="157.21" y="196.09" width="14.08" height="101.34" fill="#2d2840" opacity="0.27"/><rect x="181.32" y="168.85" width="14.08" height="128.59" fill="#2d2840" opacity="0.27"/><rect x="89.07" y="255.16" width="14.08" height="42.28" fill="#2d2840" opacity="0.27"/><circle cx="438.03" cy="291.42" r="50.46" fill="#fff" stroke="#000" stroke-miterlimit="10" stroke-width="0.25"/><path d="M462.11,313l-46.89.22a89,89,0,0,0,7.36-15.3,83.22,83.22,0,0,0,4.58-19.38,12.7,12.7,0,0,1,8.75-5.91,14,14,0,0,1,13.72,5.74,58,58,0,0,0,3.77,18.94A63.83,63.83,0,0,0,462.11,313Z" fill="#2d2840" opacity="0.27"/><path d="M444.91,313.1a6.88,6.88,0,1,1-13.76,0Z" fill="#2d2840" opacity="0.27"/></g></svg>