<svg id="interface" xmlns="http://www.w3.org/2000/svg" viewBox="0 0 500 400"><rect x="28.63" y="60.06" width="442.75" height="276.57" rx="13.15" fill="#fff"/><path d="M28.63,82.85h0c0-11.63,4.84-21.13,10.76-21.13H460.61c5.92,0,10.76,9.5,10.76,21.13H28.63Z" fill="#2d2840" opacity="0.21"/><circle cx="45.8" cy="73.03" r="4.41" fill="#fff"/><circle cx="59.46" cy="73.03" r="4.41" fill="#fff"/><circle cx="72.97" cy="73.03" r="4.41" fill="#fff"/><rect x="50.21" y="109.86" width="96.03" height="58.78" rx="2.82" fill="#2d2840" opacity="0.21"/><rect x="196.77" y="109.86" width="96.03" height="58.78" rx="2.82" fill="#2d2840" opacity="0.21"/><rect x="343.34" y="109.86" width="96.03" height="58.78" rx="2.82" fill="#2d2840" opacity="0.21"/><rect x="50.21" y="210.23" width="96.03" height="58.78" rx="2.82" fill="#2d2840" opacity="0.21"/><rect x="188.42" y="205.11" width="112.73" height="69.01" rx="3.32" fill="#2d2840" opacity="0.7"/><rect x="343.34" y="210.23" width="96.03" height="58.78" rx="2.82" fill="#2d2840" opacity="0.21"/></svg>