<svg id="interface" xmlns="http://www.w3.org/2000/svg" viewBox="0 0 500 400"><rect x="44.63" y="56.85" width="410.74" height="257.6" rx="3.83" fill="#fff"/><path d="M44.63,75.67v-15a3.85,3.85,0,0,1,3.83-3.84H451.54a3.85,3.85,0,0,1,3.83,3.84v14.5Z" fill="#2d2840" opacity="0.51"/><circle cx="56.03" cy="66.26" r="3.16" fill="#fff"/><circle cx="65.21" cy="66.26" r="3.16" fill="#fff"/><circle cx="73.99" cy="66.26" r="3.16" fill="#fff"/><rect x="68.42" y="118.19" width="77.83" height="52.73" rx="2.41" fill="#2d2840" opacity="0.27"/><rect x="164.97" y="118.19" width="77.83" height="52.73" rx="2.41" fill="#2d2840" opacity="0.27"/><rect x="255.07" y="118.19" width="77.83" height="52.73" rx="2.41" fill="#2d2840" opacity="0.27"/><rect x="350" y="118.19" width="77.83" height="52.73" rx="2.41" fill="#2d2840" opacity="0.27"/><rect x="67.88" y="226.17" width="77.83" height="52.73" rx="2.41" fill="#2d2840" opacity="0.27"/><rect x="164.42" y="226.17" width="77.83" height="52.73" rx="2.41" fill="#2d2840" opacity="0.27"/><rect x="348.24" y="226.17" width="77.83" height="52.73" rx="2.41" fill="#2d2840" opacity="0.27"/><rect x="250.78" y="222.08" width="89.9" height="60.91" rx="2.78" fill="#2d2840" opacity="0.64"/><rect x="68.42" y="156" width="77.83" height="14.92" rx="1.28" fill="#2d2840" opacity="0.27"/><rect x="164.97" y="156" width="77.83" height="14.92" rx="1.28" fill="#2d2840" opacity="0.27"/><rect x="68.42" y="200.43" width="103.48" height="9.89" rx="1.2" fill="#2d2840" opacity="0.43"/></svg>